# xmcd
#
# Track frame offsets:
#	150
#	8537
#	26062
#	46227
#	62420
#	78579
#	93305
#	105552
#	122795
#	133492
#	144747
#
# Disc length: 2124 seconds
#
# Revision: 0
# Processed by: cddbd v1.4PL0 Copyright (c) Steve Scherf et al.
# Submitted via: EasyCDDAExtractor 4.6.0.1
#
DISCID=90084a0b
DTITLE=Nana Caymmi
DYEAR=1900
DGENRE=
TTITLE0=Só louco
TTITLE1=Ponta de Areia
TTITLE2=Saudade
TTITLE3=Boca a boca
TTITLE4=Tati, a garota
TTITLE5=Dupla traição
TTITLE6=Tens
TTITLE7=Desenredo
TTITLE8=Acorda que eu quero ver
TTITLE9=A dor a mais
TTITLE10=Branca Dias
EXTD=
EXTT0=
EXTT1=
EXTT2=
EXTT3=
EXTT4=
EXTT5=
EXTT6=
EXTT7=
EXTT8=
EXTT9=
EXTT10=
PLAYORDER=
